<svg width="42" height="43" viewBox="0 0 42 43" fill="none" xmlns="http://www.w3.org/2000/svg">
<path d="M17.0461 2.03383C9.38027 3.53664 3.20742 9.71687 1.70625 17.3819C-0.561094 28.9401 7.33769 39.2186 18.0387 40.769C19.5981 41.0059 21.0057 39.7633 21.0057 38.1858L21.0057 38.1314C21.0057 36.8402 20.0673 35.7624 18.804 35.5688C11.8847 34.504 6.56497 28.5034 6.56497 21.2789C6.56497 12.8379 13.8338 6.06213 22.4298 6.89064C29.9389 7.61818 35.44 14.376 35.44 21.9188V23.2444C35.44 25.0565 33.9683 26.5297 32.1587 26.5297C30.3491 26.5297 28.8766 25.0565 28.8766 23.2444V13.3924C28.8766 12.6667 28.2892 12.0783 27.5633 12.0783L24.94 12.0786C24.3412 12.0786 23.8571 12.4881 23.6996 13.0367C21.6612 12.04 19.2503 11.693 16.64 12.6179C13.4613 13.7442 11.0521 16.63 10.5927 19.9711C9.8148 25.6321 14.1865 30.4711 19.69 30.4711C21.8589 30.4711 23.8268 29.6882 25.3985 28.4302C27.3673 30.9978 30.7494 32.4243 34.3727 31.5056C38.1609 30.6274 40.6875 26.9196 40.6137 23.0724V21.3579C40.6137 9.11886 29.6297 -0.432197 17.0461 2.03383ZM19.6137 25.2954C17.4423 25.2954 15.6762 23.5268 15.6762 21.3538C15.6762 19.1808 17.4423 17.4122 19.6137 17.4122C21.785 17.4122 23.5512 19.1808 23.5512 21.3538C23.5512 23.5268 21.8613 25.2954 19.6137 25.2954Z" fill="#3B6B4C"/>
</svg>
