<svg width="28" height="28" viewBox="0 0 28 28" fill="none" xmlns="http://www.w3.org/2000/svg">
<path d="M10.0747 1.87425C10.1734 1.9333 10.2594 2.01119 10.3279 2.10349C10.3964 2.19578 10.446 2.30067 10.4739 2.41215C10.5019 2.52363 10.5076 2.63953 10.4908 2.75322C10.4739 2.86691 10.4348 2.97617 10.3757 3.07475L5.92025 10.5H22.0797L17.6225 3.07475C17.5032 2.87564 17.4679 2.6373 17.5244 2.41216C17.5808 2.18703 17.7244 1.99353 17.9235 1.87425C18.1226 1.75497 18.361 1.71967 18.5861 1.77612C18.8112 1.83257 19.0047 1.97614 19.124 2.17525L24.1202 10.5H26.25C26.7141 10.5 27.1592 10.6844 27.4874 11.0126C27.8156 11.3408 28 11.7859 28 12.25V14C28 14.4641 27.8156 14.9092 27.4874 15.2374C27.1592 15.5656 26.7141 15.75 26.25 15.75V23.625C26.25 24.7853 25.7891 25.8981 24.9686 26.7186C24.1481 27.5391 23.0353 28 21.875 28H6.125C4.96468 28 3.85188 27.5391 3.03141 26.7186C2.21094 25.8981 1.75 24.7853 1.75 23.625V15.75C1.28587 15.75 0.840752 15.5656 0.512563 15.2374C0.184375 14.9092 0 14.4641 0 14V12.25C0 11.7859 0.184375 11.3408 0.512563 11.0126C0.840752 10.6844 1.28587 10.5 1.75 10.5H3.87975L8.8725 2.17525C8.93155 2.07665 9.00944 1.99064 9.10174 1.92215C9.19403 1.85365 9.29891 1.80401 9.41039 1.77606C9.52188 1.74811 9.63777 1.74239 9.75147 1.75924C9.86516 1.77609 9.97442 1.81517 10.073 1.87425H10.0747ZM3.5 15.75V23.625C3.5 24.3212 3.77656 24.9889 4.26884 25.4812C4.76113 25.9734 5.42881 26.25 6.125 26.25H21.875C22.5712 26.25 23.2389 25.9734 23.7312 25.4812C24.2234 24.9889 24.5 24.3212 24.5 23.625V15.75H3.5ZM1.75 12.25V14H26.25V12.25H1.75ZM7 17.5C7.23206 17.5 7.45462 17.5922 7.61872 17.7563C7.78281 17.9204 7.875 18.1429 7.875 18.375V23.625C7.875 23.8571 7.78281 24.0796 7.61872 24.2437C7.45462 24.4078 7.23206 24.5 7 24.5C6.76794 24.5 6.54538 24.4078 6.38128 24.2437C6.21719 24.0796 6.125 23.8571 6.125 23.625V18.375C6.125 18.1429 6.21719 17.9204 6.38128 17.7563C6.54538 17.5922 6.76794 17.5 7 17.5ZM10.5 17.5C10.7321 17.5 10.9546 17.5922 11.1187 17.7563C11.2828 17.9204 11.375 18.1429 11.375 18.375V23.625C11.375 23.8571 11.2828 24.0796 11.1187 24.2437C10.9546 24.4078 10.7321 24.5 10.5 24.5C10.2679 24.5 10.0454 24.4078 9.88128 24.2437C9.71719 24.0796 9.625 23.8571 9.625 23.625V18.375C9.625 18.1429 9.71719 17.9204 9.88128 17.7563C10.0454 17.5922 10.2679 17.5 10.5 17.5V17.5ZM14 17.5C14.2321 17.5 14.4546 17.5922 14.6187 17.7563C14.7828 17.9204 14.875 18.1429 14.875 18.375V23.625C14.875 23.8571 14.7828 24.0796 14.6187 24.2437C14.4546 24.4078 14.2321 24.5 14 24.5C13.7679 24.5 13.5454 24.4078 13.3813 24.2437C13.2172 24.0796 13.125 23.8571 13.125 23.625V18.375C13.125 18.1429 13.2172 17.9204 13.3813 17.7563C13.5454 17.5922 13.7679 17.5 14 17.5V17.5ZM17.5 17.5C17.7321 17.5 17.9546 17.5922 18.1187 17.7563C18.2828 17.9204 18.375 18.1429 18.375 18.375V23.625C18.375 23.8571 18.2828 24.0796 18.1187 24.2437C17.9546 24.4078 17.7321 24.5 17.5 24.5C17.2679 24.5 17.0454 24.4078 16.8813 24.2437C16.7172 24.0796 16.625 23.8571 16.625 23.625V18.375C16.625 18.1429 16.7172 17.9204 16.8813 17.7563C17.0454 17.5922 17.2679 17.5 17.5 17.5ZM21 17.5C21.2321 17.5 21.4546 17.5922 21.6187 17.7563C21.7828 17.9204 21.875 18.1429 21.875 18.375V23.625C21.875 23.8571 21.7828 24.0796 21.6187 24.2437C21.4546 24.4078 21.2321 24.5 21 24.5C20.7679 24.5 20.5454 24.4078 20.3813 24.2437C20.2172 24.0796 20.125 23.8571 20.125 23.625V18.375C20.125 18.1429 20.2172 17.9204 20.3813 17.7563C20.5454 17.5922 20.7679 17.5 21 17.5Z" fill="#8D8D8D"/>
</svg>
