<svg width="111" height="111" viewBox="0 0 111 111" fill="none" xmlns="http://www.w3.org/2000/svg">
<path d="M55.5 0C24.8449 0 0 24.8449 0 55.5C0 86.1551 24.8449 111 55.5 111C86.1551 111 111 86.1551 111 55.5C111 24.8449 86.1551 0 55.5 0ZM83.25 62.4375H44.5084L55.2138 73.1429C57.9238 75.8529 57.9238 80.243 55.2138 82.953C52.5039 85.663 48.1137 85.663 45.4038 82.953L22.8504 60.3996C21.116 58.6869 20.8125 56.5623 20.8125 55.5C20.8125 54.4414 21.1141 52.3218 22.85 50.5896L45.2017 28.2378C47.9117 25.5278 52.3018 25.5278 55.0118 28.2378C57.7217 30.9478 57.7217 35.3379 55.0118 38.0479L44.5084 48.5625H83.25C87.0851 48.5625 90.1875 51.6692 90.1875 55.5C90.1875 59.3308 87.0873 62.4375 83.25 62.4375Z" fill="#5B7D67" fill-opacity="0.247"/>
</svg>
