<svg width="18" height="18" viewBox="0 0 18 18" fill="none" xmlns="http://www.w3.org/2000/svg">
<path fill-rule="evenodd" clip-rule="evenodd" d="M8.11125 0.9C8.65125 0.331875 9 0 9 0C9.12262 0.408375 9.26325 0.7965 9.41738 1.16775C10.3309 3.357 11.7495 4.9365 13.014 6.34275C14.4877 7.983 15.75 9.38813 15.75 11.25C15.75 13.0402 15.0388 14.7571 13.773 16.023C12.5071 17.2888 10.7902 18 9 18C7.20979 18 5.4929 17.2888 4.22703 16.023C2.96116 14.7571 2.25 13.0402 2.25 11.25C2.25 7.5015 6.2775 2.83163 8.11125 0.9ZM8.57588 2.04862C7.85341 2.83043 7.16683 3.64464 6.51825 4.48875C5.7015 5.5575 4.90275 6.74775 4.31325 7.9425C3.717 9.14962 3.375 10.2803 3.375 11.25C3.375 12.7418 3.96763 14.1726 5.02252 15.2275C6.07742 16.2824 7.50816 16.875 9 16.875C10.4918 16.875 11.9226 16.2824 12.9775 15.2275C14.0324 14.1726 14.625 12.7418 14.625 11.25C14.625 9.89888 13.7295 8.82338 12.1714 7.0875L12.1376 7.0515C10.9687 5.74875 9.5625 4.185 8.57588 2.0475V2.04862Z" fill="#5B7D67"/>
<path fill-rule="evenodd" clip-rule="evenodd" d="M5.12207 8.748C6.04457 6.90187 7.0537 5.65087 7.4767 5.22675L8.2732 6.02325C7.94695 6.3495 7.0042 7.49812 6.12782 9.252L5.12207 8.748Z" fill="#5B7D67"/>
</svg>
