<svg width="36" height="36" viewBox="0 0 36 36" fill="none" xmlns="http://www.w3.org/2000/svg">
<path fill-rule="evenodd" clip-rule="evenodd" d="M18 0C27.934 0 36 8.05519 36 18C36 27.934 27.9448 36 18 36C8.06599 36 0 27.9448 0 18C0 8.06599 8.05519 0 18 0ZM13.7888 8.11998H22.2112C25.3749 8.11998 27.9556 10.6791 27.9556 13.7888V22.1896C27.9556 25.3101 25.3749 27.8584 22.2112 27.8584H13.7888C10.6251 27.8584 8.04439 25.3101 8.04439 22.1896V13.7888C8.04439 10.6683 10.6359 8.11998 13.7888 8.11998ZM17.946 12.6659C21.0234 12.6659 23.5177 15.1602 23.5177 18.2376C23.5177 21.3149 21.0234 23.8092 17.946 23.8092C14.8686 23.8092 12.3743 21.3149 12.3743 18.2376C12.3743 15.1602 14.8686 12.6659 17.946 12.6659ZM17.946 14.5447C19.976 14.5447 21.6281 16.1968 21.6281 18.2268C21.6281 20.2567 19.976 21.9088 17.946 21.9088C15.9052 21.9088 14.2639 20.2567 14.2639 18.2268C14.2639 16.1968 15.916 14.5447 17.946 14.5447ZM23.3341 11.8884C23.8308 11.8884 24.2412 12.2879 24.2412 12.7954C24.2412 13.2921 23.8416 13.7025 23.3341 13.7025C22.8374 13.7025 22.4271 13.3029 22.4271 12.7954C22.4271 12.2987 22.8266 11.8884 23.3341 11.8884ZM14.4799 9.72885H21.5201C24.1656 9.72885 26.3251 11.8776 26.3251 14.5123V21.5957C26.3251 24.2304 24.1656 26.3791 21.5201 26.3791H14.4799C11.8344 26.3791 9.67486 24.2304 9.67486 21.5957V14.5123C9.67486 11.8776 11.8344 9.72885 14.4799 9.72885Z" fill="#5B7D67"/>
</svg>
