<svg width="33" height="33" viewBox="0 0 33 33" fill="none" xmlns="http://www.w3.org/2000/svg">
<path d="M16.5 16.5C18.141 16.5 19.7148 15.8481 20.8752 14.6877C22.0356 13.5273 22.6875 11.9535 22.6875 10.3125C22.6875 8.67147 22.0356 7.09766 20.8752 5.93728C19.7148 4.7769 18.141 4.125 16.5 4.125C14.859 4.125 13.2852 4.7769 12.1248 5.93728C10.9644 7.09766 10.3125 8.67147 10.3125 10.3125C10.3125 11.9535 10.9644 13.5273 12.1248 14.6877C13.2852 15.8481 14.859 16.5 16.5 16.5V16.5ZM20.625 10.3125C20.625 11.4065 20.1904 12.4557 19.4168 13.2293C18.6432 14.0029 17.594 14.4375 16.5 14.4375C15.406 14.4375 14.3568 14.0029 13.5832 13.2293C12.8096 12.4557 12.375 11.4065 12.375 10.3125C12.375 9.21848 12.8096 8.16927 13.5832 7.39568C14.3568 6.6221 15.406 6.1875 16.5 6.1875C17.594 6.1875 18.6432 6.6221 19.4168 7.39568C20.1904 8.16927 20.625 9.21848 20.625 10.3125V10.3125ZM28.875 26.8125C28.875 28.875 26.8125 28.875 26.8125 28.875H6.1875C6.1875 28.875 4.125 28.875 4.125 26.8125C4.125 24.75 6.1875 18.5625 16.5 18.5625C26.8125 18.5625 28.875 24.75 28.875 26.8125ZM26.8125 26.8043C26.8104 26.2969 26.4949 24.7706 25.0965 23.3722C23.7518 22.0275 21.2211 20.625 16.5 20.625C11.7769 20.625 9.24825 22.0275 7.9035 23.3722C6.50513 24.7706 6.19163 26.2969 6.1875 26.8043H26.8125Z" fill="#8D8D8D"/>
</svg>
