<svg width="42" height="43" viewBox="0 0 42 43" fill="none" xmlns="http://www.w3.org/2000/svg">
<g clip-path="url(#clip0_26_341)">
<path d="M41.9344 32.0793L40.0271 40.3481C39.7592 41.517 38.7319 42.3349 37.5285 42.3349C16.8328 42.3332 0 25.5004 0 4.80395C0 3.60137 0.817769 2.5727 1.9868 2.3061L10.2555 0.398872C11.4598 0.119801 12.6902 0.744879 13.1906 1.88528L17.0067 10.7857C17.4528 11.834 17.1519 13.0555 16.2701 13.7757L11.8535 17.3219C14.6409 23.0001 19.2577 27.6168 24.9375 30.4059L28.5534 25.9926C29.2661 25.1083 30.4968 24.8023 31.5451 25.2564L40.4455 29.0716C41.516 29.6348 42.2133 30.8817 41.9344 32.0793Z" fill="#3B6B4C"/>
</g>
<defs>
<clipPath id="clip0_26_341">
<rect width="42" height="42" fill="white" transform="translate(0 0.333252)"/>
</clipPath>
</defs>
</svg>
