<svg width="36" height="36" viewBox="0 0 36 36" fill="none" xmlns="http://www.w3.org/2000/svg">
<path d="M32.2995 10.6676C32.3223 10.9874 32.3223 11.3073 32.3223 11.627C32.3223 21.3808 24.8985 32.6194 11.3299 32.6194C7.14973 32.6194 3.26651 31.4087 0 29.3073C0.59393 29.3757 1.16494 29.3986 1.78172 29.3986C5.2309 29.3986 8.40607 28.2337 10.9416 26.2463C7.69795 26.1778 4.97967 24.0534 4.04311 21.1296C4.5 21.198 4.95682 21.2437 5.43656 21.2437C6.09898 21.2437 6.76146 21.1523 7.37817 20.9925C3.99748 20.3072 1.46187 17.3377 1.46187 13.7514V13.6601C2.44406 14.2083 3.58629 14.5509 4.79686 14.5965C2.80955 13.2716 1.50757 11.0103 1.50757 8.45187C1.50757 7.08134 1.87298 5.82499 2.51262 4.72854C6.14461 9.20569 11.604 12.1295 17.7258 12.4493C17.6116 11.9011 17.543 11.3301 17.543 10.759C17.543 6.693 20.8324 3.38086 24.9212 3.38086C27.0456 3.38086 28.9643 4.27172 30.3121 5.7108C31.9795 5.39102 33.5785 4.77424 34.9948 3.92909C34.4465 5.64232 33.2816 7.08141 31.7512 7.99505C33.2359 7.83523 34.675 7.42397 35.9999 6.85296C34.995 8.31483 33.7385 9.61681 32.2995 10.6676Z" fill="#5B7D67"/>
</svg>
