<svg width="42" height="37" viewBox="0 0 42 37" fill="none" xmlns="http://www.w3.org/2000/svg">
<path d="M29.75 8.75C29.75 12.7312 24.4198 19.826 22.0792 22.6844C21.5177 23.45 20.4823 23.45 19.9208 22.6844C17.5802 19.826 12.25 12.7312 12.25 8.75C12.25 3.91781 16.1656 0 21 0C25.8344 0 29.75 3.91781 29.75 8.75ZM21 11.0833C22.6115 11.0833 23.9167 9.77812 23.9167 8.16667C23.9167 6.55594 22.6115 5.25 21 5.25C19.3885 5.25 18.0833 6.55594 18.0833 8.16667C18.0833 9.77812 19.3885 11.0833 21 11.0833ZM31.0333 13.1104C31.0698 13.0229 31.1062 12.9354 31.1427 12.8406L39.601 9.45729C40.7531 8.99792 42 9.84375 42 11.0833V30.8292C42 31.5437 41.5625 32.1854 40.899 32.4552L30.3333 36.6771V14.6125C30.5885 14.1094 30.8219 13.6135 31.0333 13.1104ZM10.9667 13.1104C11.1781 13.6135 11.4115 14.1094 11.6667 14.6125V32.9437L2.39969 36.6552C1.25052 37.049 0 36.2687 0 35.0292V15.2833C0 14.5688 0.435677 13.8615 1.10031 13.6573L10.0333 10.0844C10.2083 11.1198 10.5656 12.1479 10.9667 13.1104ZM23.9021 24.1427C24.9156 22.9396 26.5052 20.876 28 18.5938V36.7719L14 32.7687V18.5938C15.4948 20.876 17.0844 22.9396 18.0979 24.1427C19.5927 26.075 22.4073 26.075 23.9021 24.1427Z" fill="#3B6B4C"/>
</svg>
