<svg width="64" height="55" viewBox="0 0 64 55" fill="none" xmlns="http://www.w3.org/2000/svg">
<path d="M31.3836 44.4024L31.3834 44.4023L31.0406 43.9988L30.6484 44.3715C22.018 52.5747 11.38 56.0932 1.73333 52.9735C1.34392 52.8458 1.13184 52.6232 1.0281 52.3905C0.920112 52.1484 0.914521 51.8605 1.00643 51.5929C1.09827 51.3256 1.27869 51.1034 1.51163 50.9776C1.73538 50.8568 2.04784 50.8028 2.45802 50.9372L2.46015 50.9378C10.9212 53.6675 20.1127 50.743 27.8169 43.9703L28.8571 43.0558L27.4765 43.1072C24.555 43.216 20.5899 42.8286 17.278 40.5914C14.0661 38.4216 11.3868 34.4556 10.9389 27.2738C18.471 26.9333 23.1462 28.8849 26.0596 31.4681C29.0487 34.1185 30.2464 37.4898 30.7166 39.9234L30.9049 40.8978L31.5845 40.1476C33.9381 37.5499 36.0172 34.5787 37.871 31.2257L38.2053 30.6209L37.5243 30.506L37.5242 30.506L37.5241 30.506L37.5223 30.5057L37.5138 30.5042L37.4769 30.4976C37.4629 30.495 37.4459 30.4919 37.4259 30.4881C37.3986 30.483 37.3657 30.4767 37.3275 30.4691C37.1956 30.4432 37.0008 30.4028 36.7531 30.346C36.2576 30.2323 35.5516 30.0528 34.7156 29.7909C33.0409 29.2663 30.8588 28.415 28.8048 27.1079C26.7501 25.8005 24.846 24.0513 23.6913 21.7386C22.5801 19.5132 22.144 16.7293 22.984 13.2414C27.0269 13.0983 29.977 13.9476 32.1362 15.2806C34.3643 16.6561 35.7881 18.5701 36.6974 20.5271C37.6082 22.4871 37.9982 24.481 38.1591 25.9912C38.2394 26.7448 38.2623 27.374 38.2651 27.813C38.2666 28.0323 38.263 28.2039 38.2592 28.3194C38.2572 28.3771 38.2553 28.4208 38.2538 28.4494L38.2521 28.4808L38.2516 28.4878L38.2516 28.4888L38.2516 28.4891L38.2516 28.4891C38.2516 28.4891 38.2516 28.4891 38.2529 28.4891L39.2105 28.7137C40.144 26.7324 41.9263 22.4047 41.9683 22.2866L42.0578 22.0348L41.8965 21.8259L41.8964 21.8257L41.8964 21.8257L41.8955 21.8246L41.891 21.8186L41.8712 21.7924C41.8533 21.7686 41.8264 21.7323 41.7915 21.6841C41.7215 21.5877 41.6193 21.4437 41.4931 21.2566C41.2404 20.8823 40.8918 20.3363 40.5119 19.6547C39.7507 18.289 38.8708 16.3919 38.3792 14.2498C37.8878 12.1081 37.7892 9.74335 38.5627 7.42342C39.3081 5.18805 40.8765 2.95355 43.7687 0.97962C47.0272 3.47763 48.6825 6.02498 49.3617 8.42386C50.0608 10.8929 49.7408 13.2579 48.9883 15.3313C48.2345 17.4084 47.0511 19.1786 46.049 20.4345C45.5491 21.0609 45.0972 21.5557 44.7716 21.8927C44.6089 22.0611 44.4779 22.1899 44.3886 22.2757C44.3439 22.3186 44.3096 22.3508 44.287 22.3718L44.262 22.3949L44.2563 22.4001L44.2553 22.4009L44.2552 22.401L44.2551 22.4011L44.0931 22.547L44.0883 22.7311C44.0835 22.7519 44.0751 22.7838 44.0624 22.8282C44.0369 22.917 43.9991 23.0386 43.9505 23.1875C43.8538 23.4842 43.7194 23.8748 43.5694 24.2968C43.2687 25.1427 42.9113 26.098 42.6764 26.661L43.4831 27.1984C43.4839 27.1993 43.4839 27.1993 43.4839 27.1994L43.4841 27.1991L43.4844 27.1988L43.4883 27.1953L43.5062 27.179C43.5227 27.1641 43.5483 27.1412 43.5827 27.1112C43.6514 27.0511 43.7553 26.9625 43.892 26.8514C44.1655 26.6291 44.5701 26.3176 45.0883 25.9662C46.126 25.2625 47.6113 24.4042 49.405 23.78C52.904 22.5624 57.579 22.2296 62.4523 25.7085C60.9111 29.4576 58.8228 31.7224 56.578 33.0339C54.2587 34.3889 51.7217 34.7556 49.3449 34.6292C46.9661 34.5028 44.7702 33.8832 43.1626 33.2905C42.3605 32.9948 41.709 32.7072 41.2595 32.4944C41.0348 32.388 40.8608 32.3004 40.744 32.24C40.6856 32.2098 40.6415 32.1863 40.6125 32.1708L40.5805 32.1534L40.5731 32.1494L40.5717 32.1486L40.5717 32.1485L40.5715 32.1485L40.1256 31.9001L39.876 32.3506C38.1405 35.4835 36.1622 38.3457 34.014 40.8938L34.6303 41.6412C34.6308 41.6422 34.6308 41.6422 34.6308 41.6422L34.6309 41.6422L34.631 41.6421L34.6321 41.6416L34.6383 41.6383L34.6664 41.6238C34.692 41.6107 34.731 41.591 34.783 41.5654C34.8869 41.5142 35.0423 41.4398 35.2441 41.3488C35.6478 41.1668 36.2364 40.919 36.9693 40.6595C38.4371 40.1398 40.4729 39.5766 42.7549 39.3951C47.2204 39.0398 52.6182 40.1393 56.6036 45.924C53.5125 49.253 50.442 50.8295 47.5849 51.3492C44.6408 51.8848 41.8678 51.3083 39.461 50.2817C37.0524 49.2542 35.0303 47.784 33.6062 46.5641C32.8955 45.9553 32.337 45.4116 31.9573 45.0214C31.7675 44.8263 31.6226 44.6698 31.5258 44.5629C31.4774 44.5095 31.4411 44.4685 31.4172 44.4412L31.3909 44.4109L31.3848 44.4039L31.3836 44.4024L31.3836 44.4024ZM44.092 22.7141C44.092 22.714 44.0918 22.7151 44.0914 22.7174C44.0917 22.7153 44.0919 22.7141 44.092 22.7141Z" fill="#21462E" stroke="#F5F5F5"/>
</svg>
