<svg width="222" height="76" viewBox="0 0 222 76" fill="none" xmlns="http://www.w3.org/2000/svg">
<mask id="path-1-outside-1_2_10" maskUnits="userSpaceOnUse" x="0" y="21.0332" width="148" height="34" fill="black">
<rect fill="white" y="21.0332" width="148" height="34"/>
<path d="M16.1058 49.6817C19.0051 49.6677 20.4548 48.204 20.4548 45.2907C20.4548 43.722 20.2167 42.6365 19.7405 42.0343C18.9281 40.9838 18.5219 40.3535 18.5219 40.1434C18.5219 39.317 19.8315 38.9038 22.4507 38.9038C24.3835 38.9038 25.9102 39.0369 27.0307 39.303C27.8151 39.4851 28.2073 39.8843 28.2073 40.5006C28.2073 40.8507 28.0322 41.2989 27.682 41.8452C27.3459 42.3914 27.1498 42.8326 27.0938 43.1688C27.0377 43.5049 26.9327 44.3943 26.7786 45.837C26.6386 47.2656 26.5615 48.036 26.5475 48.148C26.3654 49.4366 26.0153 50.312 25.4971 50.7742C24.9928 51.2364 24.1314 51.6496 22.9129 52.0138C20.3497 52.7841 17.9617 53.1693 15.7487 53.1693H14.9083C12.9474 53.1693 11.0565 52.7911 9.23572 52.0348C5.72013 50.5781 3.31104 48.106 2.00845 44.6184C1.33615 42.8116 1 40.8787 1 38.8198V37.9374C1 35.9765 1.39218 34.0577 2.17653 32.1808C3.77325 28.3291 6.39944 25.7099 10.0551 24.3233C11.7358 23.679 13.6407 23.3568 15.7697 23.3568C16.442 23.3568 17.2263 23.4199 18.1227 23.5459C19.0191 23.672 20.1536 23.735 21.5263 23.735C22.9129 23.735 24.0124 24.0431 24.8247 24.6594C25.6511 25.2617 26.0643 26.3402 26.0643 27.8949C26.0643 30.0378 25.6441 31.1093 24.8037 31.1093C24.4116 31.1093 23.4871 30.5631 22.0305 29.4706C20.5738 28.3781 19.4533 27.6638 18.669 27.3276C17.8846 26.9915 16.8481 26.8234 15.5596 26.8234C14.271 26.8374 13.1085 27.1525 12.072 27.7688C8.9906 29.6177 7.44991 33.0212 7.44991 37.9794C7.44991 41.495 8.28329 44.3243 9.95004 46.4673C11.6168 48.6102 13.6687 49.6817 16.1058 49.6817Z"/>
<path d="M43.4602 44.2192C43.4602 43.589 43.2641 43.2738 42.8719 43.2738H42.3256C41.9755 43.3438 41.7094 43.3789 41.5273 43.3789C40.2527 43.3789 39.1812 43.75 38.3128 44.4924C37.4444 45.2347 37.0102 46.0751 37.0102 47.0135V47.4967C37.0102 48.211 37.2343 48.8273 37.6825 49.3456C38.1307 49.8638 38.677 50.1229 39.3213 50.1229H39.9936C40.918 50.1229 41.7094 49.8358 42.3677 49.2615C43.026 48.6873 43.3551 48.127 43.3551 47.5808C43.4111 47.3006 43.4391 47.1186 43.4391 47.0345L43.4812 46.6984V45.795L43.5022 45.4588V44.5344C43.4742 44.3943 43.4602 44.2893 43.4602 44.2192ZM51.99 50.8792V51.1944C51.99 51.6706 51.4648 52.1188 50.4143 52.539C49.3638 52.9452 48.1173 53.1483 46.6746 53.1483C45.7922 53.1483 45.0289 52.7491 44.3846 51.9507C44.0344 51.5025 43.7613 51.2784 43.5652 51.2784C43.3691 51.2644 43.033 51.4255 42.5567 51.7616C40.96 52.8541 39.2372 53.4004 37.3884 53.4004C37.3744 53.4004 37.3604 53.4074 37.3464 53.4214C35.5256 53.4214 34.0689 52.9522 32.9764 52.0138C31.8839 51.0753 31.3307 49.7587 31.3167 48.064C31.3167 44.4223 34.1179 42.1323 39.7205 41.1939C41.0651 40.9838 41.8704 40.8227 42.1366 40.7107C42.9489 40.3745 43.3551 39.6252 43.3551 38.4626C43.3551 37.3001 43.089 36.4667 42.5567 35.9625C42.0385 35.4443 41.4292 35.1852 40.7289 35.1852C39.6224 35.1852 38.621 35.7804 37.7246 36.971C36.8282 38.1475 35.7847 38.7358 34.5942 38.7358C33.8938 38.7358 33.3616 38.5467 32.9974 38.1685C32.6473 37.7763 32.4722 37.3772 32.4722 36.971C32.4722 35.7384 33.1165 34.758 34.4051 34.0296C36.548 32.8251 38.8171 32.2228 41.2121 32.2228H42.3046C43.5092 32.2228 44.6577 32.4819 45.7502 33.0002C46.8567 33.5044 47.7111 34.2818 48.3133 35.3322C48.9156 36.3827 49.2168 38.7288 49.2168 42.3704C49.2168 46.0121 49.3288 48.113 49.5529 48.6733C49.791 49.2195 50.2532 49.6257 50.9395 49.8918C51.6398 50.1439 51.99 50.4731 51.99 50.8792Z"/>
<path d="M64.7638 34.4708C66.3885 33.3503 67.7751 32.7901 68.9236 32.7901C70.0722 32.7901 70.8495 33.0352 71.2557 33.5254C71.6759 34.0156 71.886 34.6039 71.886 35.2902C71.886 35.9765 71.6969 36.5928 71.3187 37.139C70.9546 37.6713 70.5344 37.9374 70.0582 37.9374C69.5959 37.9374 68.9517 37.7553 68.1253 37.3912C67.2989 37.027 66.6616 36.8449 66.2134 36.8449C65.7652 36.8449 65.261 37.083 64.7007 37.5592C64.1405 38.0355 63.7483 38.7148 63.5242 39.5972C63.3141 40.4796 63.2091 41.8662 63.2091 43.757C63.2091 45.6339 63.3421 46.8524 63.6082 47.4127C63.8744 47.9589 64.4206 48.6803 65.247 49.5767C66.0734 50.4731 66.4865 51.2084 66.4865 51.7827C66.4865 52.455 64.8618 52.7911 61.6123 52.7911H59.8055L59.3643 52.7701C59.0702 52.7561 58.7691 52.7491 58.4609 52.7491L58.0197 52.7281C57.7256 52.7141 57.4175 52.7071 57.0953 52.7071C55.6246 52.7071 54.8893 52.3919 54.8893 51.7616C54.8893 51.1314 55.2535 50.4941 55.9818 49.8498C56.7241 49.2055 57.1723 48.6242 57.3264 48.106C57.4945 47.5878 57.5785 45.809 57.5785 42.7696C57.5785 39.7302 57.4805 37.9094 57.2844 37.3071C57.1023 36.7049 56.6471 36.1936 55.9188 35.7734C55.2045 35.3392 54.8473 34.891 54.8473 34.4288C54.8473 33.7845 55.3305 33.3293 56.2969 33.0632C57.7536 32.671 59.0702 32.4749 60.2467 32.4749C61.4233 32.4749 62.2146 32.608 62.6208 32.8741C62.7889 32.9862 62.978 33.3433 63.1881 33.9456C63.4122 34.5479 63.6713 34.849 63.9654 34.849C64.0915 34.849 64.3576 34.723 64.7638 34.4708Z"/>
<path d="M84.5127 50.2069H84.8698C86.1444 50.2069 87.0898 49.7237 87.7061 48.7573C88.1263 48.099 88.3364 46.6213 88.3364 44.3243V41.404C88.3364 38.9809 88.0843 37.3281 87.5801 36.4457C87.0898 35.5493 86.1304 35.1011 84.7018 35.1011H84.5127C83.2241 35.1011 82.1386 35.7664 81.2562 37.097C80.3738 38.4136 79.9326 40.0384 79.9326 41.9712V43.3368C79.9326 45.1297 80.2758 46.6003 80.9621 47.7488C81.9425 49.3876 83.126 50.2069 84.5127 50.2069ZM87.559 32.706C88.2173 32.706 88.5465 31.9497 88.5465 30.437C88.5465 27.9719 88.0143 26.2701 86.9498 25.3317C86.1514 24.6454 85.7522 24.1902 85.7522 23.9661C85.7522 23.5179 86.4105 23.0837 87.7271 22.6635C89.0437 22.2433 90.2413 22.0332 91.3197 22.0332C92.3982 22.0332 93.0985 22.1523 93.4207 22.3904C93.7568 22.6285 93.9809 23.1467 94.093 23.9451C94.2191 24.7435 94.2821 28.6302 94.2821 35.6054C94.2821 42.5665 94.3591 46.5023 94.5132 47.4127C94.6673 48.3091 94.9544 49.0164 95.3746 49.5346C95.4026 49.5767 95.6687 49.7798 96.1729 50.1439C96.6772 50.5081 96.9293 50.8092 96.9293 51.0473V51.4045C96.9293 51.6146 96.7892 51.8387 96.5091 52.0768C95.6687 52.7771 93.8549 53.1273 91.0676 53.1273C90.3393 53.1273 89.779 52.8751 89.3869 52.3709C88.9947 51.8667 88.7846 51.6146 88.7566 51.6146C88.4905 51.6286 88.0353 51.8037 87.391 52.1398C85.8923 52.9522 84.5057 53.3584 83.2311 53.3584C83.2031 53.3584 83.1821 53.3584 83.1681 53.3584H82.6218C81.5994 53.3584 80.5839 53.1203 79.5754 52.644C77.4885 51.6636 76.0178 49.9828 75.1635 47.6018C74.7293 46.3692 74.5122 45.1297 74.5122 43.8831V43.3158C74.5122 43.2738 74.5122 43.2388 74.5122 43.2108C74.5122 41.6001 74.7993 40.0874 75.3736 38.6727C77.0123 34.5969 80.0096 32.559 84.3656 32.559C85.4441 32.559 86.0814 32.566 86.2775 32.58L86.7187 32.622C87.1949 32.678 87.475 32.706 87.559 32.706Z"/>
<path d="M109.976 34.891H109.367C108.484 34.891 107.637 35.3532 106.825 36.2777C106.026 37.1881 105.627 38.2806 105.627 39.5551V39.8913C105.627 40.4095 105.914 40.6686 106.489 40.6686L106.699 40.7107H108.19L108.295 40.6897L111.804 40.4796C112.014 40.4375 112.154 40.4165 112.224 40.4165C112.938 40.4165 113.296 40.0454 113.296 39.303V38.6097C113.296 37.6713 112.96 36.8169 112.287 36.0466C111.615 35.2762 110.845 34.891 109.976 34.891ZM105.879 44.8915C105.879 46.2922 106.538 47.5037 107.854 48.5262C108.835 49.2965 110.081 49.6817 111.594 49.6817C112.28 49.6817 113.296 49.4856 114.64 49.0934C115.999 48.7013 116.783 48.5052 116.993 48.5052C117.624 48.5052 117.939 48.8483 117.939 49.5346C117.939 50.347 117.098 51.1734 115.418 52.0138C113.751 52.8401 112.021 53.2533 110.228 53.2533H109.304C109.276 53.2533 109.241 53.2533 109.199 53.2533C108.064 53.2533 106.909 53.0222 105.732 52.56C103.407 51.6636 101.754 50.0949 100.774 47.8539C100.102 46.3132 99.7656 44.8495 99.7656 43.4629V42.4965C99.7656 41.0818 100.011 39.7162 100.501 38.3996C101.425 35.9205 103.057 34.1347 105.396 33.0422C106.797 32.3979 108.267 32.0758 109.808 32.0758H110.291C112.574 32.0758 114.5 32.7831 116.069 34.1977C116.895 34.9541 117.526 35.8645 117.96 36.929C118.408 37.9934 118.632 39.0789 118.632 40.1854C118.632 41.2779 118.093 41.9992 117.014 42.3494C115.502 42.8396 112.7 43.0847 108.611 43.0847C107.518 43.0847 106.79 43.2248 106.426 43.5049C106.061 43.771 105.879 44.2332 105.879 44.8915Z"/>
<path d="M146.154 51.3415C146.154 51.8597 145.727 52.2449 144.873 52.497C144.033 52.7351 142.611 52.8541 140.608 52.8541C138.619 52.8541 137.429 52.7141 137.036 52.4339C136.644 52.1538 136.448 51.8247 136.448 51.4465C136.448 51.0543 136.623 50.4661 136.973 49.6817C137.338 48.8974 137.562 48.2671 137.646 47.7909C137.73 47.3146 137.772 45.7039 137.772 42.9587C137.772 40.2134 137.534 38.3436 137.057 37.3491C136.595 36.3407 135.678 35.8365 134.305 35.8365C132.933 35.8365 131.819 36.4317 130.965 37.6223C130.39 38.4206 130.103 39.8843 130.103 42.0132C130.103 45.5288 130.425 48.106 131.07 49.7447C131.462 50.6972 131.658 51.3134 131.658 51.5936C131.658 52.1258 131.336 52.462 130.692 52.602C130.047 52.7281 128.647 52.7911 126.49 52.7911C124.347 52.7911 123.051 52.651 122.603 52.3709C122.155 52.0768 121.931 51.6846 121.931 51.1944C121.931 50.7042 122.302 50.2139 123.044 49.7237C123.786 49.2335 124.207 48.7923 124.305 48.4001C124.403 47.9939 124.452 46.2151 124.452 43.0637C124.452 39.8983 124.347 38.0495 124.137 37.5172C123.926 36.971 123.506 36.3407 122.876 35.6264C122.246 34.912 121.931 34.5479 121.931 34.5339V34.0927C121.931 33.8546 122.106 33.6375 122.456 33.4414C123.674 32.7411 125.488 32.3909 127.897 32.3909C128.57 32.3909 129.13 32.7201 129.578 33.3784C130.04 34.0366 130.376 34.3658 130.586 34.3658C130.797 34.3658 131.287 34.1417 132.057 33.6935C132.841 33.2313 133.269 32.9862 133.339 32.9582C134.459 32.4399 135.503 32.1808 136.469 32.1808H137.141C139.593 32.1808 141.343 33.1613 142.394 35.1221C143.066 36.3967 143.402 39.4571 143.402 44.3033C143.402 46.8945 143.486 48.3721 143.654 48.7363C143.822 49.1004 144.278 49.5206 145.02 49.9969C145.776 50.4591 146.154 50.9073 146.154 51.3415Z"/>
</mask>
<path d="M16.1058 49.6817C19.0051 49.6677 20.4548 48.204 20.4548 45.2907C20.4548 43.722 20.2167 42.6365 19.7405 42.0343C18.9281 40.9838 18.5219 40.3535 18.5219 40.1434C18.5219 39.317 19.8315 38.9038 22.4507 38.9038C24.3835 38.9038 25.9102 39.0369 27.0307 39.303C27.8151 39.4851 28.2073 39.8843 28.2073 40.5006C28.2073 40.8507 28.0322 41.2989 27.682 41.8452C27.3459 42.3914 27.1498 42.8326 27.0938 43.1688C27.0377 43.5049 26.9327 44.3943 26.7786 45.837C26.6386 47.2656 26.5615 48.036 26.5475 48.148C26.3654 49.4366 26.0153 50.312 25.4971 50.7742C24.9928 51.2364 24.1314 51.6496 22.9129 52.0138C20.3497 52.7841 17.9617 53.1693 15.7487 53.1693H14.9083C12.9474 53.1693 11.0565 52.7911 9.23572 52.0348C5.72013 50.5781 3.31104 48.106 2.00845 44.6184C1.33615 42.8116 1 40.8787 1 38.8198V37.9374C1 35.9765 1.39218 34.0577 2.17653 32.1808C3.77325 28.3291 6.39944 25.7099 10.0551 24.3233C11.7358 23.679 13.6407 23.3568 15.7697 23.3568C16.442 23.3568 17.2263 23.4199 18.1227 23.5459C19.0191 23.672 20.1536 23.735 21.5263 23.735C22.9129 23.735 24.0124 24.0431 24.8247 24.6594C25.6511 25.2617 26.0643 26.3402 26.0643 27.8949C26.0643 30.0378 25.6441 31.1093 24.8037 31.1093C24.4116 31.1093 23.4871 30.5631 22.0305 29.4706C20.5738 28.3781 19.4533 27.6638 18.669 27.3276C17.8846 26.9915 16.8481 26.8234 15.5596 26.8234C14.271 26.8374 13.1085 27.1525 12.072 27.7688C8.9906 29.6177 7.44991 33.0212 7.44991 37.9794C7.44991 41.495 8.28329 44.3243 9.95004 46.4673C11.6168 48.6102 13.6687 49.6817 16.1058 49.6817Z" fill="#21462E"/>
<path d="M43.4602 44.2192C43.4602 43.589 43.2641 43.2738 42.8719 43.2738H42.3256C41.9755 43.3438 41.7094 43.3789 41.5273 43.3789C40.2527 43.3789 39.1812 43.75 38.3128 44.4924C37.4444 45.2347 37.0102 46.0751 37.0102 47.0135V47.4967C37.0102 48.211 37.2343 48.8273 37.6825 49.3456C38.1307 49.8638 38.677 50.1229 39.3213 50.1229H39.9936C40.918 50.1229 41.7094 49.8358 42.3677 49.2615C43.026 48.6873 43.3551 48.127 43.3551 47.5808C43.4111 47.3006 43.4391 47.1186 43.4391 47.0345L43.4812 46.6984V45.795L43.5022 45.4588V44.5344C43.4742 44.3943 43.4602 44.2893 43.4602 44.2192ZM51.99 50.8792V51.1944C51.99 51.6706 51.4648 52.1188 50.4143 52.539C49.3638 52.9452 48.1173 53.1483 46.6746 53.1483C45.7922 53.1483 45.0289 52.7491 44.3846 51.9507C44.0344 51.5025 43.7613 51.2784 43.5652 51.2784C43.3691 51.2644 43.033 51.4255 42.5567 51.7616C40.96 52.8541 39.2372 53.4004 37.3884 53.4004C37.3744 53.4004 37.3604 53.4074 37.3464 53.4214C35.5256 53.4214 34.0689 52.9522 32.9764 52.0138C31.8839 51.0753 31.3307 49.7587 31.3167 48.064C31.3167 44.4223 34.1179 42.1323 39.7205 41.1939C41.0651 40.9838 41.8704 40.8227 42.1366 40.7107C42.9489 40.3745 43.3551 39.6252 43.3551 38.4626C43.3551 37.3001 43.089 36.4667 42.5567 35.9625C42.0385 35.4443 41.4292 35.1852 40.7289 35.1852C39.6224 35.1852 38.621 35.7804 37.7246 36.971C36.8282 38.1475 35.7847 38.7358 34.5942 38.7358C33.8938 38.7358 33.3616 38.5467 32.9974 38.1685C32.6473 37.7763 32.4722 37.3772 32.4722 36.971C32.4722 35.7384 33.1165 34.758 34.4051 34.0296C36.548 32.8251 38.8171 32.2228 41.2121 32.2228H42.3046C43.5092 32.2228 44.6577 32.4819 45.7502 33.0002C46.8567 33.5044 47.7111 34.2818 48.3133 35.3322C48.9156 36.3827 49.2168 38.7288 49.2168 42.3704C49.2168 46.0121 49.3288 48.113 49.5529 48.6733C49.791 49.2195 50.2532 49.6257 50.9395 49.8918C51.6398 50.1439 51.99 50.4731 51.99 50.8792Z" fill="#21462E"/>
<path d="M64.7638 34.4708C66.3885 33.3503 67.7751 32.7901 68.9236 32.7901C70.0722 32.7901 70.8495 33.0352 71.2557 33.5254C71.6759 34.0156 71.886 34.6039 71.886 35.2902C71.886 35.9765 71.6969 36.5928 71.3187 37.139C70.9546 37.6713 70.5344 37.9374 70.0582 37.9374C69.5959 37.9374 68.9517 37.7553 68.1253 37.3912C67.2989 37.027 66.6616 36.8449 66.2134 36.8449C65.7652 36.8449 65.261 37.083 64.7007 37.5592C64.1405 38.0355 63.7483 38.7148 63.5242 39.5972C63.3141 40.4796 63.2091 41.8662 63.2091 43.757C63.2091 45.6339 63.3421 46.8524 63.6082 47.4127C63.8744 47.9589 64.4206 48.6803 65.247 49.5767C66.0734 50.4731 66.4865 51.2084 66.4865 51.7827C66.4865 52.455 64.8618 52.7911 61.6123 52.7911H59.8055L59.3643 52.7701C59.0702 52.7561 58.7691 52.7491 58.4609 52.7491L58.0197 52.7281C57.7256 52.7141 57.4175 52.7071 57.0953 52.7071C55.6246 52.7071 54.8893 52.3919 54.8893 51.7616C54.8893 51.1314 55.2535 50.4941 55.9818 49.8498C56.7241 49.2055 57.1723 48.6242 57.3264 48.106C57.4945 47.5878 57.5785 45.809 57.5785 42.7696C57.5785 39.7302 57.4805 37.9094 57.2844 37.3071C57.1023 36.7049 56.6471 36.1936 55.9188 35.7734C55.2045 35.3392 54.8473 34.891 54.8473 34.4288C54.8473 33.7845 55.3305 33.3293 56.2969 33.0632C57.7536 32.671 59.0702 32.4749 60.2467 32.4749C61.4233 32.4749 62.2146 32.608 62.6208 32.8741C62.7889 32.9862 62.978 33.3433 63.1881 33.9456C63.4122 34.5479 63.6713 34.849 63.9654 34.849C64.0915 34.849 64.3576 34.723 64.7638 34.4708Z" fill="#21462E"/>
<path d="M84.5127 50.2069H84.8698C86.1444 50.2069 87.0898 49.7237 87.7061 48.7573C88.1263 48.099 88.3364 46.6213 88.3364 44.3243V41.404C88.3364 38.9809 88.0843 37.3281 87.5801 36.4457C87.0898 35.5493 86.1304 35.1011 84.7018 35.1011H84.5127C83.2241 35.1011 82.1386 35.7664 81.2562 37.097C80.3738 38.4136 79.9326 40.0384 79.9326 41.9712V43.3368C79.9326 45.1297 80.2758 46.6003 80.9621 47.7488C81.9425 49.3876 83.126 50.2069 84.5127 50.2069ZM87.559 32.706C88.2173 32.706 88.5465 31.9497 88.5465 30.437C88.5465 27.9719 88.0143 26.2701 86.9498 25.3317C86.1514 24.6454 85.7522 24.1902 85.7522 23.9661C85.7522 23.5179 86.4105 23.0837 87.7271 22.6635C89.0437 22.2433 90.2413 22.0332 91.3197 22.0332C92.3982 22.0332 93.0985 22.1523 93.4207 22.3904C93.7568 22.6285 93.9809 23.1467 94.093 23.9451C94.2191 24.7435 94.2821 28.6302 94.2821 35.6054C94.2821 42.5665 94.3591 46.5023 94.5132 47.4127C94.6673 48.3091 94.9544 49.0164 95.3746 49.5346C95.4026 49.5767 95.6687 49.7798 96.1729 50.1439C96.6772 50.5081 96.9293 50.8092 96.9293 51.0473V51.4045C96.9293 51.6146 96.7892 51.8387 96.5091 52.0768C95.6687 52.7771 93.8549 53.1273 91.0676 53.1273C90.3393 53.1273 89.779 52.8751 89.3869 52.3709C88.9947 51.8667 88.7846 51.6146 88.7566 51.6146C88.4905 51.6286 88.0353 51.8037 87.391 52.1398C85.8923 52.9522 84.5057 53.3584 83.2311 53.3584C83.2031 53.3584 83.1821 53.3584 83.1681 53.3584H82.6218C81.5994 53.3584 80.5839 53.1203 79.5754 52.644C77.4885 51.6636 76.0178 49.9828 75.1635 47.6018C74.7293 46.3692 74.5122 45.1297 74.5122 43.8831V43.3158C74.5122 43.2738 74.5122 43.2388 74.5122 43.2108C74.5122 41.6001 74.7993 40.0874 75.3736 38.6727C77.0123 34.5969 80.0096 32.559 84.3656 32.559C85.4441 32.559 86.0814 32.566 86.2775 32.58L86.7187 32.622C87.1949 32.678 87.475 32.706 87.559 32.706Z" fill="#21462E"/>
<path d="M109.976 34.891H109.367C108.484 34.891 107.637 35.3532 106.825 36.2777C106.026 37.1881 105.627 38.2806 105.627 39.5551V39.8913C105.627 40.4095 105.914 40.6686 106.489 40.6686L106.699 40.7107H108.19L108.295 40.6897L111.804 40.4796C112.014 40.4375 112.154 40.4165 112.224 40.4165C112.938 40.4165 113.296 40.0454 113.296 39.303V38.6097C113.296 37.6713 112.96 36.8169 112.287 36.0466C111.615 35.2762 110.845 34.891 109.976 34.891ZM105.879 44.8915C105.879 46.2922 106.538 47.5037 107.854 48.5262C108.835 49.2965 110.081 49.6817 111.594 49.6817C112.28 49.6817 113.296 49.4856 114.64 49.0934C115.999 48.7013 116.783 48.5052 116.993 48.5052C117.624 48.5052 117.939 48.8483 117.939 49.5346C117.939 50.347 117.098 51.1734 115.418 52.0138C113.751 52.8401 112.021 53.2533 110.228 53.2533H109.304C109.276 53.2533 109.241 53.2533 109.199 53.2533C108.064 53.2533 106.909 53.0222 105.732 52.56C103.407 51.6636 101.754 50.0949 100.774 47.8539C100.102 46.3132 99.7656 44.8495 99.7656 43.4629V42.4965C99.7656 41.0818 100.011 39.7162 100.501 38.3996C101.425 35.9205 103.057 34.1347 105.396 33.0422C106.797 32.3979 108.267 32.0758 109.808 32.0758H110.291C112.574 32.0758 114.5 32.7831 116.069 34.1977C116.895 34.9541 117.526 35.8645 117.96 36.929C118.408 37.9934 118.632 39.0789 118.632 40.1854C118.632 41.2779 118.093 41.9992 117.014 42.3494C115.502 42.8396 112.7 43.0847 108.611 43.0847C107.518 43.0847 106.79 43.2248 106.426 43.5049C106.061 43.771 105.879 44.2332 105.879 44.8915Z" fill="#21462E"/>
<path d="M146.154 51.3415C146.154 51.8597 145.727 52.2449 144.873 52.497C144.033 52.7351 142.611 52.8541 140.608 52.8541C138.619 52.8541 137.429 52.7141 137.036 52.4339C136.644 52.1538 136.448 51.8247 136.448 51.4465C136.448 51.0543 136.623 50.4661 136.973 49.6817C137.338 48.8974 137.562 48.2671 137.646 47.7909C137.73 47.3146 137.772 45.7039 137.772 42.9587C137.772 40.2134 137.534 38.3436 137.057 37.3491C136.595 36.3407 135.678 35.8365 134.305 35.8365C132.933 35.8365 131.819 36.4317 130.965 37.6223C130.39 38.4206 130.103 39.8843 130.103 42.0132C130.103 45.5288 130.425 48.106 131.07 49.7447C131.462 50.6972 131.658 51.3134 131.658 51.5936C131.658 52.1258 131.336 52.462 130.692 52.602C130.047 52.7281 128.647 52.7911 126.49 52.7911C124.347 52.7911 123.051 52.651 122.603 52.3709C122.155 52.0768 121.931 51.6846 121.931 51.1944C121.931 50.7042 122.302 50.2139 123.044 49.7237C123.786 49.2335 124.207 48.7923 124.305 48.4001C124.403 47.9939 124.452 46.2151 124.452 43.0637C124.452 39.8983 124.347 38.0495 124.137 37.5172C123.926 36.971 123.506 36.3407 122.876 35.6264C122.246 34.912 121.931 34.5479 121.931 34.5339V34.0927C121.931 33.8546 122.106 33.6375 122.456 33.4414C123.674 32.7411 125.488 32.3909 127.897 32.3909C128.57 32.3909 129.13 32.7201 129.578 33.3784C130.04 34.0366 130.376 34.3658 130.586 34.3658C130.797 34.3658 131.287 34.1417 132.057 33.6935C132.841 33.2313 133.269 32.9862 133.339 32.9582C134.459 32.4399 135.503 32.1808 136.469 32.1808H137.141C139.593 32.1808 141.343 33.1613 142.394 35.1221C143.066 36.3967 143.402 39.4571 143.402 44.3033C143.402 46.8945 143.486 48.3721 143.654 48.7363C143.822 49.1004 144.278 49.5206 145.02 49.9969C145.776 50.4591 146.154 50.9073 146.154 51.3415Z" fill="#21462E"/>
<path d="M16.1058 49.6817C19.0051 49.6677 20.4548 48.204 20.4548 45.2907C20.4548 43.722 20.2167 42.6365 19.7405 42.0343C18.9281 40.9838 18.5219 40.3535 18.5219 40.1434C18.5219 39.317 19.8315 38.9038 22.4507 38.9038C24.3835 38.9038 25.9102 39.0369 27.0307 39.303C27.8151 39.4851 28.2073 39.8843 28.2073 40.5006C28.2073 40.8507 28.0322 41.2989 27.682 41.8452C27.3459 42.3914 27.1498 42.8326 27.0938 43.1688C27.0377 43.5049 26.9327 44.3943 26.7786 45.837C26.6386 47.2656 26.5615 48.036 26.5475 48.148C26.3654 49.4366 26.0153 50.312 25.4971 50.7742C24.9928 51.2364 24.1314 51.6496 22.9129 52.0138C20.3497 52.7841 17.9617 53.1693 15.7487 53.1693H14.9083C12.9474 53.1693 11.0565 52.7911 9.23572 52.0348C5.72013 50.5781 3.31104 48.106 2.00845 44.6184C1.33615 42.8116 1 40.8787 1 38.8198V37.9374C1 35.9765 1.39218 34.0577 2.17653 32.1808C3.77325 28.3291 6.39944 25.7099 10.0551 24.3233C11.7358 23.679 13.6407 23.3568 15.7697 23.3568C16.442 23.3568 17.2263 23.4199 18.1227 23.5459C19.0191 23.672 20.1536 23.735 21.5263 23.735C22.9129 23.735 24.0124 24.0431 24.8247 24.6594C25.6511 25.2617 26.0643 26.3402 26.0643 27.8949C26.0643 30.0378 25.6441 31.1093 24.8037 31.1093C24.4116 31.1093 23.4871 30.5631 22.0305 29.4706C20.5738 28.3781 19.4533 27.6638 18.669 27.3276C17.8846 26.9915 16.8481 26.8234 15.5596 26.8234C14.271 26.8374 13.1085 27.1525 12.072 27.7688C8.9906 29.6177 7.44991 33.0212 7.44991 37.9794C7.44991 41.495 8.28329 44.3243 9.95004 46.4673C11.6168 48.6102 13.6687 49.6817 16.1058 49.6817Z" stroke="#F5F5F5" stroke-width="2" mask="url(#path-1-outside-1_2_10)"/>
<path d="M43.4602 44.2192C43.4602 43.589 43.2641 43.2738 42.8719 43.2738H42.3256C41.9755 43.3438 41.7094 43.3789 41.5273 43.3789C40.2527 43.3789 39.1812 43.75 38.3128 44.4924C37.4444 45.2347 37.0102 46.0751 37.0102 47.0135V47.4967C37.0102 48.211 37.2343 48.8273 37.6825 49.3456C38.1307 49.8638 38.677 50.1229 39.3213 50.1229H39.9936C40.918 50.1229 41.7094 49.8358 42.3677 49.2615C43.026 48.6873 43.3551 48.127 43.3551 47.5808C43.4111 47.3006 43.4391 47.1186 43.4391 47.0345L43.4812 46.6984V45.795L43.5022 45.4588V44.5344C43.4742 44.3943 43.4602 44.2893 43.4602 44.2192ZM51.99 50.8792V51.1944C51.99 51.6706 51.4648 52.1188 50.4143 52.539C49.3638 52.9452 48.1173 53.1483 46.6746 53.1483C45.7922 53.1483 45.0289 52.7491 44.3846 51.9507C44.0344 51.5025 43.7613 51.2784 43.5652 51.2784C43.3691 51.2644 43.033 51.4255 42.5567 51.7616C40.96 52.8541 39.2372 53.4004 37.3884 53.4004C37.3744 53.4004 37.3604 53.4074 37.3464 53.4214C35.5256 53.4214 34.0689 52.9522 32.9764 52.0138C31.8839 51.0753 31.3307 49.7587 31.3167 48.064C31.3167 44.4223 34.1179 42.1323 39.7205 41.1939C41.0651 40.9838 41.8704 40.8227 42.1366 40.7107C42.9489 40.3745 43.3551 39.6252 43.3551 38.4626C43.3551 37.3001 43.089 36.4667 42.5567 35.9625C42.0385 35.4443 41.4292 35.1852 40.7289 35.1852C39.6224 35.1852 38.621 35.7804 37.7246 36.971C36.8282 38.1475 35.7847 38.7358 34.5942 38.7358C33.8938 38.7358 33.3616 38.5467 32.9974 38.1685C32.6473 37.7763 32.4722 37.3772 32.4722 36.971C32.4722 35.7384 33.1165 34.758 34.4051 34.0296C36.548 32.8251 38.8171 32.2228 41.2121 32.2228H42.3046C43.5092 32.2228 44.6577 32.4819 45.7502 33.0002C46.8567 33.5044 47.7111 34.2818 48.3133 35.3322C48.9156 36.3827 49.2168 38.7288 49.2168 42.3704C49.2168 46.0121 49.3288 48.113 49.5529 48.6733C49.791 49.2195 50.2532 49.6257 50.9395 49.8918C51.6398 50.1439 51.99 50.4731 51.99 50.8792Z" stroke="#F5F5F5" stroke-width="2" mask="url(#path-1-outside-1_2_10)"/>
<path d="M64.7638 34.4708C66.3885 33.3503 67.7751 32.7901 68.9236 32.7901C70.0722 32.7901 70.8495 33.0352 71.2557 33.5254C71.6759 34.0156 71.886 34.6039 71.886 35.2902C71.886 35.9765 71.6969 36.5928 71.3187 37.139C70.9546 37.6713 70.5344 37.9374 70.0582 37.9374C69.5959 37.9374 68.9517 37.7553 68.1253 37.3912C67.2989 37.027 66.6616 36.8449 66.2134 36.8449C65.7652 36.8449 65.261 37.083 64.7007 37.5592C64.1405 38.0355 63.7483 38.7148 63.5242 39.5972C63.3141 40.4796 63.2091 41.8662 63.2091 43.757C63.2091 45.6339 63.3421 46.8524 63.6082 47.4127C63.8744 47.9589 64.4206 48.6803 65.247 49.5767C66.0734 50.4731 66.4865 51.2084 66.4865 51.7827C66.4865 52.455 64.8618 52.7911 61.6123 52.7911H59.8055L59.3643 52.7701C59.0702 52.7561 58.7691 52.7491 58.4609 52.7491L58.0197 52.7281C57.7256 52.7141 57.4175 52.7071 57.0953 52.7071C55.6246 52.7071 54.8893 52.3919 54.8893 51.7616C54.8893 51.1314 55.2535 50.4941 55.9818 49.8498C56.7241 49.2055 57.1723 48.6242 57.3264 48.106C57.4945 47.5878 57.5785 45.809 57.5785 42.7696C57.5785 39.7302 57.4805 37.9094 57.2844 37.3071C57.1023 36.7049 56.6471 36.1936 55.9188 35.7734C55.2045 35.3392 54.8473 34.891 54.8473 34.4288C54.8473 33.7845 55.3305 33.3293 56.2969 33.0632C57.7536 32.671 59.0702 32.4749 60.2467 32.4749C61.4233 32.4749 62.2146 32.608 62.6208 32.8741C62.7889 32.9862 62.978 33.3433 63.1881 33.9456C63.4122 34.5479 63.6713 34.849 63.9654 34.849C64.0915 34.849 64.3576 34.723 64.7638 34.4708Z" stroke="#F5F5F5" stroke-width="2" mask="url(#path-1-outside-1_2_10)"/>
<path d="M84.5127 50.2069H84.8698C86.1444 50.2069 87.0898 49.7237 87.7061 48.7573C88.1263 48.099 88.3364 46.6213 88.3364 44.3243V41.404C88.3364 38.9809 88.0843 37.3281 87.5801 36.4457C87.0898 35.5493 86.1304 35.1011 84.7018 35.1011H84.5127C83.2241 35.1011 82.1386 35.7664 81.2562 37.097C80.3738 38.4136 79.9326 40.0384 79.9326 41.9712V43.3368C79.9326 45.1297 80.2758 46.6003 80.9621 47.7488C81.9425 49.3876 83.126 50.2069 84.5127 50.2069ZM87.559 32.706C88.2173 32.706 88.5465 31.9497 88.5465 30.437C88.5465 27.9719 88.0143 26.2701 86.9498 25.3317C86.1514 24.6454 85.7522 24.1902 85.7522 23.9661C85.7522 23.5179 86.4105 23.0837 87.7271 22.6635C89.0437 22.2433 90.2413 22.0332 91.3197 22.0332C92.3982 22.0332 93.0985 22.1523 93.4207 22.3904C93.7568 22.6285 93.9809 23.1467 94.093 23.9451C94.2191 24.7435 94.2821 28.6302 94.2821 35.6054C94.2821 42.5665 94.3591 46.5023 94.5132 47.4127C94.6673 48.3091 94.9544 49.0164 95.3746 49.5346C95.4026 49.5767 95.6687 49.7798 96.1729 50.1439C96.6772 50.5081 96.9293 50.8092 96.9293 51.0473V51.4045C96.9293 51.6146 96.7892 51.8387 96.5091 52.0768C95.6687 52.7771 93.8549 53.1273 91.0676 53.1273C90.3393 53.1273 89.779 52.8751 89.3869 52.3709C88.9947 51.8667 88.7846 51.6146 88.7566 51.6146C88.4905 51.6286 88.0353 51.8037 87.391 52.1398C85.8923 52.9522 84.5057 53.3584 83.2311 53.3584C83.2031 53.3584 83.1821 53.3584 83.1681 53.3584H82.6218C81.5994 53.3584 80.5839 53.1203 79.5754 52.644C77.4885 51.6636 76.0178 49.9828 75.1635 47.6018C74.7293 46.3692 74.5122 45.1297 74.5122 43.8831V43.3158C74.5122 43.2738 74.5122 43.2388 74.5122 43.2108C74.5122 41.6001 74.7993 40.0874 75.3736 38.6727C77.0123 34.5969 80.0096 32.559 84.3656 32.559C85.4441 32.559 86.0814 32.566 86.2775 32.58L86.7187 32.622C87.1949 32.678 87.475 32.706 87.559 32.706Z" stroke="#F5F5F5" stroke-width="2" mask="url(#path-1-outside-1_2_10)"/>
<path d="M109.976 34.891H109.367C108.484 34.891 107.637 35.3532 106.825 36.2777C106.026 37.1881 105.627 38.2806 105.627 39.5551V39.8913C105.627 40.4095 105.914 40.6686 106.489 40.6686L106.699 40.7107H108.19L108.295 40.6897L111.804 40.4796C112.014 40.4375 112.154 40.4165 112.224 40.4165C112.938 40.4165 113.296 40.0454 113.296 39.303V38.6097C113.296 37.6713 112.96 36.8169 112.287 36.0466C111.615 35.2762 110.845 34.891 109.976 34.891ZM105.879 44.8915C105.879 46.2922 106.538 47.5037 107.854 48.5262C108.835 49.2965 110.081 49.6817 111.594 49.6817C112.28 49.6817 113.296 49.4856 114.64 49.0934C115.999 48.7013 116.783 48.5052 116.993 48.5052C117.624 48.5052 117.939 48.8483 117.939 49.5346C117.939 50.347 117.098 51.1734 115.418 52.0138C113.751 52.8401 112.021 53.2533 110.228 53.2533H109.304C109.276 53.2533 109.241 53.2533 109.199 53.2533C108.064 53.2533 106.909 53.0222 105.732 52.56C103.407 51.6636 101.754 50.0949 100.774 47.8539C100.102 46.3132 99.7656 44.8495 99.7656 43.4629V42.4965C99.7656 41.0818 100.011 39.7162 100.501 38.3996C101.425 35.9205 103.057 34.1347 105.396 33.0422C106.797 32.3979 108.267 32.0758 109.808 32.0758H110.291C112.574 32.0758 114.5 32.7831 116.069 34.1977C116.895 34.9541 117.526 35.8645 117.96 36.929C118.408 37.9934 118.632 39.0789 118.632 40.1854C118.632 41.2779 118.093 41.9992 117.014 42.3494C115.502 42.8396 112.7 43.0847 108.611 43.0847C107.518 43.0847 106.79 43.2248 106.426 43.5049C106.061 43.771 105.879 44.2332 105.879 44.8915Z" stroke="#F5F5F5" stroke-width="2" mask="url(#path-1-outside-1_2_10)"/>
<path d="M146.154 51.3415C146.154 51.8597 145.727 52.2449 144.873 52.497C144.033 52.7351 142.611 52.8541 140.608 52.8541C138.619 52.8541 137.429 52.7141 137.036 52.4339C136.644 52.1538 136.448 51.8247 136.448 51.4465C136.448 51.0543 136.623 50.4661 136.973 49.6817C137.338 48.8974 137.562 48.2671 137.646 47.7909C137.73 47.3146 137.772 45.7039 137.772 42.9587C137.772 40.2134 137.534 38.3436 137.057 37.3491C136.595 36.3407 135.678 35.8365 134.305 35.8365C132.933 35.8365 131.819 36.4317 130.965 37.6223C130.39 38.4206 130.103 39.8843 130.103 42.0132C130.103 45.5288 130.425 48.106 131.07 49.7447C131.462 50.6972 131.658 51.3134 131.658 51.5936C131.658 52.1258 131.336 52.462 130.692 52.602C130.047 52.7281 128.647 52.7911 126.49 52.7911C124.347 52.7911 123.051 52.651 122.603 52.3709C122.155 52.0768 121.931 51.6846 121.931 51.1944C121.931 50.7042 122.302 50.2139 123.044 49.7237C123.786 49.2335 124.207 48.7923 124.305 48.4001C124.403 47.9939 124.452 46.2151 124.452 43.0637C124.452 39.8983 124.347 38.0495 124.137 37.5172C123.926 36.971 123.506 36.3407 122.876 35.6264C122.246 34.912 121.931 34.5479 121.931 34.5339V34.0927C121.931 33.8546 122.106 33.6375 122.456 33.4414C123.674 32.7411 125.488 32.3909 127.897 32.3909C128.57 32.3909 129.13 32.7201 129.578 33.3784C130.04 34.0366 130.376 34.3658 130.586 34.3658C130.797 34.3658 131.287 34.1417 132.057 33.6935C132.841 33.2313 133.269 32.9862 133.339 32.9582C134.459 32.4399 135.503 32.1808 136.469 32.1808H137.141C139.593 32.1808 141.343 33.1613 142.394 35.1221C143.066 36.3967 143.402 39.4571 143.402 44.3033C143.402 46.8945 143.486 48.3721 143.654 48.7363C143.822 49.1004 144.278 49.5206 145.02 49.9969C145.776 50.4591 146.154 50.9073 146.154 51.3415Z" stroke="#F5F5F5" stroke-width="2" mask="url(#path-1-outside-1_2_10)"/>
<path d="M182.298 51.4024L182.298 51.4023L181.955 50.9988L181.563 51.3715C172.932 59.5747 162.294 63.0932 152.648 59.9735C152.258 59.8458 152.046 59.6232 151.942 59.3905C151.834 59.1484 151.829 58.8605 151.921 58.5929C152.012 58.3256 152.193 58.1034 152.426 57.9776C152.65 57.8568 152.962 57.8028 153.372 57.9372L153.374 57.9378C161.835 60.6675 171.027 57.743 178.731 50.9703L179.771 50.0558L178.391 50.1072C175.469 50.216 171.504 49.8286 168.192 47.5914C164.98 45.4216 162.301 41.4556 161.853 34.2738C169.385 33.9333 174.06 35.8849 176.974 38.4681C179.963 41.1185 181.161 44.4898 181.631 46.9234L181.819 47.8978L182.499 47.1476C184.852 44.5499 186.931 41.5787 188.785 38.2257L189.119 37.6209L188.439 37.506L188.438 37.506L188.438 37.506L188.437 37.5057L188.428 37.5042L188.391 37.4976C188.377 37.495 188.36 37.4919 188.34 37.4881C188.313 37.483 188.28 37.4767 188.242 37.4691C188.11 37.4432 187.915 37.4028 187.667 37.346C187.172 37.2323 186.466 37.0528 185.63 36.7909C183.955 36.2663 181.773 35.415 179.719 34.1079C177.664 32.8005 175.76 31.0513 174.605 28.7386C173.494 26.5132 173.058 23.7293 173.898 20.2414C177.941 20.0983 180.891 20.9476 183.05 22.2806C185.278 23.6561 186.702 25.5701 187.612 27.5271C188.522 29.4871 188.912 31.481 189.073 32.9912C189.154 33.7448 189.176 34.374 189.179 34.813C189.181 35.0323 189.177 35.2039 189.173 35.3194C189.171 35.3771 189.169 35.4208 189.168 35.4494L189.166 35.4808L189.166 35.4878L189.166 35.4888L189.166 35.4891L189.166 35.4891C189.166 35.4891 189.166 35.4891 189.167 35.4891L190.125 35.7137C191.058 33.7324 192.84 29.4047 192.882 29.2866L192.972 29.0348L192.811 28.8259L192.811 28.8257L192.811 28.8257L192.81 28.8246L192.805 28.8186L192.785 28.7924C192.768 28.7686 192.741 28.7323 192.706 28.6841C192.636 28.5877 192.534 28.4437 192.407 28.2566C192.155 27.8823 191.806 27.3363 191.426 26.6547C190.665 25.289 189.785 23.3919 189.293 21.2498C188.802 19.1081 188.703 16.7434 189.477 14.4234C190.222 12.188 191.791 9.95355 194.683 7.97962C197.941 10.4776 199.597 13.025 200.276 15.4239C200.975 17.8929 200.655 20.2579 199.902 22.3313C199.149 24.4084 197.965 26.1786 196.963 27.4345C196.463 28.0609 196.011 28.5557 195.686 28.8927C195.523 29.0611 195.392 29.1899 195.303 29.2757C195.258 29.3186 195.224 29.3508 195.201 29.3718L195.176 29.3949L195.17 29.4001L195.17 29.4009L195.169 29.401L195.169 29.4011L195.007 29.547L195.003 29.7311C194.998 29.7519 194.989 29.7838 194.977 29.8282C194.951 29.917 194.913 30.0386 194.865 30.1875C194.768 30.4842 194.634 30.8748 194.484 31.2968C194.183 32.1427 193.826 33.098 193.591 33.661L194.397 34.1984C194.398 34.1993 194.398 34.1993 194.398 34.1994L194.398 34.1991L194.399 34.1988L194.402 34.1953L194.42 34.179C194.437 34.1641 194.463 34.1412 194.497 34.1112C194.566 34.0511 194.669 33.9625 194.806 33.8514C195.08 33.6291 195.484 33.3176 196.002 32.9662C197.04 32.2625 198.526 31.4042 200.319 30.78C203.818 29.5624 208.493 29.2296 213.367 32.7085C211.825 36.4576 209.737 38.7224 207.492 40.0339C205.173 41.3889 202.636 41.7556 200.259 41.6292C197.88 41.5028 195.684 40.8832 194.077 40.2905C193.275 39.9948 192.623 39.7072 192.174 39.4944C191.949 39.388 191.775 39.3004 191.658 39.24C191.6 39.2098 191.556 39.1863 191.527 39.1708L191.495 39.1534L191.487 39.1494L191.486 39.1486L191.486 39.1485L191.486 39.1485L191.04 38.9001L190.79 39.3506C189.055 42.4835 187.076 45.3457 184.928 47.8938L185.544 48.6412C185.545 48.6422 185.545 48.6422 185.545 48.6422L185.545 48.6422L185.545 48.6421L185.546 48.6416L185.553 48.6383L185.581 48.6238C185.606 48.6107 185.645 48.591 185.697 48.5654C185.801 48.5142 185.957 48.4398 186.158 48.3488C186.562 48.1668 187.151 47.919 187.884 47.6595C189.351 47.1398 191.387 46.5766 193.669 46.3951C198.135 46.0398 203.532 47.1393 207.518 52.924C204.427 56.253 201.356 57.8295 198.499 58.3492C195.555 58.8848 192.782 58.3083 190.375 57.2817C187.967 56.2542 185.944 54.784 184.52 53.5641C183.81 52.9553 183.251 52.4116 182.871 52.0214C182.682 51.8263 182.537 51.6698 182.44 51.5629C182.392 51.5095 182.355 51.4685 182.331 51.4412L182.305 51.4109L182.299 51.4039L182.298 51.4024L182.298 51.4024ZM195.006 29.7141C195.006 29.714 195.006 29.7151 195.006 29.7174C195.006 29.7153 195.006 29.7141 195.006 29.7141Z" fill="#21462E" stroke="#F5F5F5"/>
</svg>
